# xmcd
#
# Track frame offsets: 
#        150
#        10815
#        29190
#        44865
#        54310
#        70137
#        87840
#        98710
#        113560
#        129762
#        156687
#        171615
#        181965
#        194477
#
# Disc length: 2762 seconds
#
# Revision: 7
# Processed by: cddbd v1.5.2PL0 Copyright (c) Steve Scherf et al.
# Submitted via: ExactAudioCopy v0.90b4
#
DISCID=c60ac80e
DTITLE=Various Artist - Chicago The Blues Today [CD2]
DYEAR=1999
DGENRE=Blues
TTITLE0=The James Cotton Blues Band - Cotton Crop Blues
TTITLE1=The James Cotton Blues Band - The Blues Keep Falling
TTITLE2=The James Cotton Blues Band - Love Me or Leave
TTITLE3=The James Cotton Blues Band - Rocket 88
TTITLE4=The James Cotton Blues Band - West Helena Blues
TTITLE5=The Otis Rush Blues Band - Everything's Going to Turn Out Alr
TTITLE5=ight
TTITLE6=The Otis Rush Blues Band - It's a Mean Old World
TTITLE7=The Otis Rush Blues Band - I Can't Quit You Baby
TTITLE8=The Otis Rush Blues Band - Rock
TTITLE9=The Otis Rush Blues Band - It's My Own Fault
TTITLE10=Homesick James and His Dusters - Dust My Broom
TTITLE11=Homesick James and His Dusters - Somebody Been Talkin'
TTITLE12=Homesick James and His Dusters - Set a Date
TTITLE13=Homesick James and His Dusters - So Mean to Me
EXTD=YEAR: 1999
EXTT0=
EXTT1=
EXTT2=
EXTT3=
EXTT4=
EXTT5=
EXTT6=
EXTT7=
EXTT8=
EXTT9=
EXTT10=
EXTT11=
EXTT12=
EXTT13=
PLAYORDER=
